<?xml version="1.0" standalone="no"?>
<!DOCTYPE svg PUBLIC "-//W3C//DTD SVG 20010904//EN"
 "http://www.w3.org/TR/2001/REC-SVG-20010904/DTD/svg10.dtd">
<svg version="1.0" xmlns="http://www.w3.org/2000/svg"
 width="626.000000pt" height="626.000000pt" viewBox="0 0 626.000000 626.000000"
 preserveAspectRatio="xMidYMid meet">

<g transform="translate(0.000000,626.000000) scale(0.100000,-0.100000)"
fill="#000000" stroke="none">
<path d="M0 3130 l0 -3130 3130 0 3130 0 0 3130 0 3130 -3130 0 -3130 0 0
-3130z m4654 1568 c-37 -35 -207 -202 -379 -373 -171 -170 -323 -320 -338
-332 l-26 -22 -628 -3 -628 -3 -51 -27 c-150 -79 -208 -236 -139 -373 31 -61
55 -82 131 -117 47 -22 62 -23 381 -26 l332 -3 -127 -131 c-70 -72 -243 -247
-384 -389 -142 -142 -258 -261 -258 -264 0 -3 -18 -24 -40 -46 -22 -23 -40
-36 -40 -30 0 15 69 125 81 129 5 2 9 9 9 15 0 11 46 86 70 114 5 7 10 16 10
20 0 4 14 24 30 43 16 19 30 39 30 44 0 5 18 35 40 67 22 32 40 63 40 69 0 5
3 10 8 10 4 0 18 20 32 45 17 32 21 48 14 55 -17 17 -55 -6 -105 -63 -24 -28
-88 -95 -141 -149 l-97 -99 -58 15 c-88 23 -188 61 -221 85 -17 12 -34 21 -38
21 -10 0 -88 53 -92 63 -2 4 -8 7 -14 7 -14 0 -148 135 -148 149 0 6 -4 11 -9
11 -5 0 -19 19 -31 43 -12 23 -25 44 -29 47 -15 12 -62 120 -82 190 -33 116
-38 318 -10 434 12 48 27 102 35 120 32 74 64 136 80 152 6 6 20 23 31 38 107
145 270 249 475 303 114 30 154 31 1158 37 l683 3 -81 -79 c-80 -79 -88 -92
-70 -103 11 -7 121 46 167 81 17 13 35 24 40 24 5 0 19 8 33 18 25 18 105 65
175 103 22 12 42 25 45 29 3 3 30 20 60 36 30 16 60 35 68 42 7 6 20 12 28 12
8 0 14 5 14 10 0 6 7 10 15 10 9 0 -14 -28 -51 -62z m-788 -933 c-5 -14 -319
-511 -387 -612 -39 -60 -16 -68 34 -12 132 145 262 269 282 269 43 0 192 -50
280 -95 304 -152 475 -435 475 -784 0 -186 -45 -336 -146 -488 -133 -200 -363
-322 -665 -353 -61 -6 -421 -10 -908 -10 l-806 1 84 78 c49 44 80 80 74 84 -6
4 -162 -84 -348 -194 -185 -110 -339 -198 -343 -195 -3 3 185 195 419 426
l424 419 616 0 c720 1 685 -3 784 94 53 51 66 72 80 120 21 74 14 129 -24 190
-31 48 -94 96 -150 115 -23 8 -141 12 -367 12 -203 0 -334 4 -334 9 0 12 912
941 924 941 4 0 6 -7 2 -15z"/>
</g>
</svg>
